<svg width="23" height="23" viewBox="0 0 23 23" fill="none" xmlns="http://www.w3.org/2000/svg">
<path d="M20.68 6.56929C20.8141 6.12367 20.68 5.79688 20.0455 5.79688H17.9439C17.4092 5.79688 17.1648 6.07958 17.0306 6.39008C17.0306 6.39008 15.9621 8.99579 14.4479 10.6853C13.9592 11.177 13.7359 11.3322 13.4695 11.3322C13.3362 11.3322 13.1427 11.177 13.1427 10.7313V6.56929C13.1427 6.03454 12.9884 5.79688 12.5427 5.79688H9.24033C8.90683 5.79688 8.70558 6.04413 8.70558 6.27988C8.70558 6.78588 9.46267 6.90279 9.54029 8.32879V11.4223C9.54029 12.0998 9.41858 12.2235 9.15025 12.2235C8.43821 12.2235 6.70554 9.60817 5.67725 6.61433C5.47696 6.03263 5.27475 5.79783 4.73808 5.79783H2.63741C2.03654 5.79783 1.91675 6.08054 1.91675 6.39104C1.91675 6.94879 2.62879 9.70879 5.23354 13.3591C6.97004 15.8517 9.41475 17.203 11.6419 17.203C12.9769 17.203 13.1417 16.903 13.1417 16.3855V14.5014C13.1417 13.9015 13.2692 13.7808 13.6918 13.7808C14.0023 13.7808 14.537 13.9379 15.7838 15.1387C17.2079 16.5628 17.4437 17.202 18.2439 17.202H20.3445C20.9445 17.202 21.2444 16.902 21.0719 16.3098C20.8831 15.7204 20.2027 14.8627 19.3 13.8478C18.8093 13.269 18.0762 12.6461 17.8529 12.3346C17.5414 11.9331 17.6315 11.7558 17.8529 11.3993C17.8538 11.4003 20.4135 7.795 20.68 6.56929Z" fill="black"/>
</svg>
